<svg width="71" height="40" viewBox="0 0 71 40" fill="none" xmlns="http://www.w3.org/2000/svg">
<path d="M18.3169 7.5901C16.9193 5.26821 17.1493 2.56592 18.8303 1.55439L18.9917 1.45701C20.6727 0.445486 23.1677 1.50774 24.5652 3.82962L41.7652 32.4097C43.1627 34.7315 42.9328 37.4336 41.2524 38.4453L41.0903 38.5428C39.4094 39.5539 36.9144 38.4916 35.5168 36.1697L28.6248 24.7184L18.3169 7.5901Z" stroke="black" stroke-width="1.7" stroke-miterlimit="10"/>
<path d="M32.8154 5.93856C32.0525 4.67101 32.7959 2.82374 34.4763 1.81254L34.6377 1.71516C36.3182 0.703965 38.2987 0.911817 39.0615 2.17941L48.4512 17.7816C49.2141 19.0492 48.4707 20.8964 46.7903 21.9076L46.6283 22.005C44.9485 23.0162 42.9679 22.8083 42.2051 21.5408L32.8154 5.93856Z" stroke="black" stroke-width="1.7" stroke-miterlimit="10"/>
<path d="M53.0639 1.0484e-05C52.4782 -0.00115878 51.9698 0.0955007 51.5327 0.278408C51.0962 0.46137 50.7064 0.693609 50.3673 0.9744C50.0277 1.25525 49.7393 1.59361 49.5143 2.00102C49.2894 2.40842 49.1374 2.82279 49.0622 3.219C48.9865 3.61522 48.9943 4.07658 49.0795 4.61099C49.1647 5.1454 51.3267 8.95098 55.5522 16.0253C59.7777 23.0996 61.923 27.0057 62.0077 27.7351C62.0923 28.4651 62.0004 29.1104 61.7293 29.7017C61.4581 30.2925 61.1051 30.7786 60.6502 31.1283C60.1959 31.4779 59.7298 31.7162 59.2582 31.8415C58.7872 31.9673 58.2961 31.9751 57.7794 31.8938C57.2627 31.8126 56.7176 31.572 56.1613 31.1633C55.6045 30.7541 54.7844 29.6811 53.7081 27.9439C52.6313 26.2073 51.8941 25.2045 51.4982 24.934C51.1023 24.6632 50.6402 24.47 50.1062 24.3598C49.5722 24.2496 49.0867 24.2281 48.6274 24.3076C48.1674 24.3871 47.6246 24.6551 47.0266 25.0904C46.428 25.5258 45.9809 26.0781 45.6864 26.7608C45.3924 27.4439 45.2821 28.0715 45.3384 28.6227C45.3946 29.1745 45.9559 30.3671 47.0266 32.2246C48.0967 34.082 48.8412 35.2619 49.2538 35.7569C49.6663 36.2513 50.1118 36.7168 50.5934 37.1311C51.075 37.5459 51.751 37.9985 52.629 38.4885C53.5071 38.9785 54.354 39.3243 55.1519 39.5498C55.9503 39.7753 56.7315 39.92 57.501 39.9674C58.2705 40.0147 58.9626 40.0119 59.589 39.9501C60.2154 39.8883 60.9186 39.7374 61.712 39.4974C62.5049 39.258 63.2727 38.9239 64.0088 38.523C64.7449 38.1227 65.5934 37.4685 66.5316 36.557C67.4698 35.6455 68.1408 34.8265 68.5673 34.1038C68.9938 33.3805 69.3568 32.5514 69.6463 31.5982C69.9353 30.645 70.1152 29.8226 70.1681 29.1271C70.221 28.4323 70.1887 27.6873 70.0985 26.8827C70.0083 26.0781 69.7972 25.1861 69.4548 24.2206C69.1118 23.2548 66.8245 19.2368 62.599 12.1625C58.374 5.08822 56.1229 1.4072 55.8306 1.1136C55.5383 0.820057 55.1469 0.5499 54.6647 0.330635C54.1825 0.111369 53.6502 0.00117975 53.0639 1.0484e-05ZM53.5862 1.68782C53.9074 1.76889 54.2393 1.93342 54.5606 2.20981C54.8818 2.48621 57.0845 6.07252 61.1898 12.9455C65.295 19.8185 67.5166 23.6948 67.854 24.586C68.1909 25.4768 68.4008 26.2452 68.4804 26.9C68.5595 27.5553 68.5684 28.2407 68.5149 28.9362C68.462 29.631 68.2521 30.5191 67.854 31.6154C67.4554 32.7118 67.0511 33.5297 66.6708 34.0687C66.2905 34.6082 65.8841 35.0887 65.4353 35.513C64.9865 35.9373 64.3674 36.3888 63.5912 36.8527C62.8145 37.3165 62.1413 37.6333 61.555 37.827C60.9687 38.0214 60.325 38.1834 59.6413 38.2797C58.9576 38.376 58.2894 38.3905 57.6402 38.3493C56.991 38.3076 56.2393 38.1628 55.3785 37.8966C54.5171 37.6311 53.8239 37.3326 53.2905 37.0269C52.7565 36.7213 52.1992 36.3215 51.6201 35.8087C51.0405 35.2964 50.5772 34.8192 50.2281 34.3649C49.8785 33.91 49.2298 32.8604 48.2966 31.2329C47.3634 29.6049 46.9158 28.572 46.957 28.1182C46.9976 27.6644 47.1441 27.268 47.3746 26.935C47.6045 26.6021 47.9525 26.3348 48.4186 26.1344C48.884 25.9345 49.3334 25.8738 49.7755 25.9606C50.2176 26.0475 50.5611 26.1822 50.7849 26.361C51.0082 26.5392 51.5979 27.4534 52.5767 29.0926C53.5561 30.7318 54.1569 31.6522 54.369 31.8766C54.5812 32.101 54.9431 32.3888 55.4481 32.7118C55.9525 33.0342 56.5038 33.2569 57.1007 33.4078C57.6981 33.5581 58.3312 33.591 59.0149 33.4946C59.6987 33.3983 60.3072 33.2185 60.8418 32.9378C61.3768 32.6572 61.8835 32.2535 62.3557 31.7374C62.8278 31.2212 63.1686 30.6761 63.3824 30.1193C63.5957 29.5625 63.7054 28.9467 63.7126 28.2402C63.7198 27.5336 63.6586 26.9662 63.5389 26.5698C63.4192 26.1728 61.2566 22.4618 57.0489 15.4162C52.8406 8.37074 50.7426 4.5768 50.7326 4.03677C50.722 3.49679 50.874 3.00542 51.2025 2.57518C51.5305 2.145 51.9314 1.86549 52.403 1.73999C52.874 1.6146 53.2643 1.60675 53.5862 1.68782Z" fill="black"/>
<path d="M1.91432 7.5901C0.517322 5.26821 0.74672 2.56592 2.42768 1.55439L2.58972 1.45701C4.27012 0.445486 6.76567 1.50774 8.16267 3.82962L25.3632 32.4097C26.7601 34.7315 26.5308 37.4336 24.8498 38.4453L24.6878 38.5428C23.0074 39.5539 20.5118 38.4916 19.1143 36.1697L12.2228 24.7184L1.91432 7.5901Z" stroke="black" stroke-width="1.7" stroke-miterlimit="10"/>
</svg>
